<svg id="visual" viewBox="0 0 1600 900" width="1600" height="900" xmlns="http://www.w3.org/2000/svg" xmlns:xlink="http://www.w3.org/1999/xlink" version="1.1"><rect x="0" y="0" width="1600" height="900" fill="#ffffff"></rect><defs><linearGradient id="grad1_0" x1="43.8%" y1="0%" x2="100%" y2="100%"><stop offset="14.444444444444446%" stop-color="#0fadb6" stop-opacity="1"></stop><stop offset="85.55555555555554%" stop-color="#0fadb6" stop-opacity="1"></stop></linearGradient></defs><defs><linearGradient id="grad1_1" x1="43.8%" y1="0%" x2="100%" y2="100%"><stop offset="14.444444444444446%" stop-color="#0fadb6" stop-opacity="1"></stop><stop offset="85.55555555555554%" stop-color="#ffffff" stop-opacity="1"></stop></linearGradient></defs><defs><linearGradient id="grad2_0" x1="0%" y1="0%" x2="56.3%" y2="100%"><stop offset="14.444444444444446%" stop-color="#0fadb6" stop-opacity="1"></stop><stop offset="85.55555555555554%" stop-color="#0fadb6" stop-opacity="1"></stop></linearGradient></defs><defs><linearGradient id="grad2_1" x1="0%" y1="0%" x2="56.3%" y2="100%"><stop offset="14.444444444444446%" stop-color="#ffffff" stop-opacity="1"></stop><stop offset="85.55555555555554%" stop-color="#0fadb6" stop-opacity="1"></stop></linearGradient></defs><g transform="translate(1600, 0)"><path d="M0 810C-80 790.5 -160 771.1 -243.8 750.4C-327.6 729.7 -415.3 707.9 -476.1 655.3C-536.9 602.7 -570.8 519.5 -617.3 448.5C-663.8 377.5 -722.8 318.7 -757 246C-791.3 173.3 -800.6 86.6 -810 0L0 0Z" fill="#a0d6da"></path><path d="M0 405C-40 395.3 -80 385.5 -121.9 375.2C-163.8 364.9 -207.7 353.9 -238.1 327.7C-268.4 301.4 -285.4 259.7 -308.6 224.2C-331.9 188.7 -361.4 159.3 -378.5 123C-395.6 86.6 -400.3 43.3 -405 0L0 0Z" fill="#0fadb6"></path></g><g transform="translate(0, 900)"><path d="M0 -810C82.9 -789.7 165.9 -769.3 237.9 -732.3C310 -695.3 371.1 -641.6 429.7 -591.4C488.2 -541.1 544.2 -494.3 606 -440.3C667.7 -386.2 735.4 -324.9 770.4 -250.3C805.3 -175.7 807.7 -87.9 810 0L0 0Z" fill="#a0d6da"></path><path d="M0 -405C41.5 -394.8 82.9 -384.7 119 -366.2C155 -347.7 185.6 -320.8 214.8 -295.7C244.1 -270.6 272.1 -247.2 303 -220.1C333.9 -193.1 367.7 -162.4 385.2 -125.2C402.7 -87.9 403.8 -43.9 405 0L0 0Z" fill="#0fadb6"></path></g></svg>