<svg id="visual" viewBox="0 0 540 960" width="540" height="960" xmlns="http://www.w3.org/2000/svg" xmlns:xlink="http://www.w3.org/1999/xlink" version="1.1"><rect x="0" y="0" width="540" height="960" fill="#222222"></rect><defs><linearGradient id="grad1_0" x1="0%" y1="0%" x2="100%" y2="100%"><stop offset="30%" stop-color="#0fadb6" stop-opacity="1"></stop><stop offset="70%" stop-color="#0fadb6" stop-opacity="1"></stop></linearGradient></defs><defs><linearGradient id="grad1_1" x1="0%" y1="0%" x2="100%" y2="100%"><stop offset="30%" stop-color="#0fadb6" stop-opacity="1"></stop><stop offset="70%" stop-color="#222222" stop-opacity="1"></stop></linearGradient></defs><defs><linearGradient id="grad2_0" x1="0%" y1="0%" x2="100%" y2="100%"><stop offset="30%" stop-color="#0fadb6" stop-opacity="1"></stop><stop offset="70%" stop-color="#0fadb6" stop-opacity="1"></stop></linearGradient></defs><defs><linearGradient id="grad2_1" x1="0%" y1="0%" x2="100%" y2="100%"><stop offset="30%" stop-color="#222222" stop-opacity="1"></stop><stop offset="70%" stop-color="#0fadb6" stop-opacity="1"></stop></linearGradient></defs><g transform="translate(540, 0)"><path d="M0 486C-49.6 475.5 -99.3 465.1 -145.5 447.9C-191.8 430.8 -234.7 407 -275.7 379.4C-316.7 351.9 -355.7 320.5 -388.3 282.1C-420.9 243.8 -447 198.4 -462.2 150.2C-477.4 102 -481.7 51 -486 0L0 0Z" fill="#2f6367"></path><path d="M0 243C-24.8 237.8 -49.6 232.5 -72.8 224C-95.9 215.4 -117.3 203.5 -137.8 189.7C-158.3 175.9 -177.9 160.3 -194.2 141.1C-210.5 121.9 -223.5 99.2 -231.1 75.1C-238.7 51 -240.9 25.5 -243 0L0 0Z" fill="#0fadb6"></path></g><g transform="translate(0, 960)"><path d="M0 -486C50.5 -475.6 101 -465.2 144.6 -445.1C188.2 -425 224.9 -395.2 268.6 -369.7C312.4 -344.2 363.2 -323.1 393.2 -285.7C423.1 -248.3 432.2 -194.6 444.1 -144.3C456.1 -94 471.1 -47 486 0L0 0Z" fill="#2f6367"></path><path d="M0 -243C25.3 -237.8 50.5 -232.6 72.3 -222.5C94.1 -212.5 112.4 -197.6 134.3 -184.9C156.2 -172.1 181.6 -161.5 196.6 -142.8C211.6 -124.1 216.1 -97.3 222.1 -72.2C228.1 -47 235.5 -23.5 243 0L0 0Z" fill="#0fadb6"></path></g></svg>