<svg id="visual" viewBox="0 0 540 960" width="540" height="960" xmlns="http://www.w3.org/2000/svg" xmlns:xlink="http://www.w3.org/1999/xlink" version="1.1"><rect x="0" y="0" width="540" height="960" fill="#ffffff"></rect><defs><linearGradient id="grad1_0" x1="0%" y1="0%" x2="100%" y2="100%"><stop offset="30%" stop-color="#0fadb6" stop-opacity="1"></stop><stop offset="70%" stop-color="#0fadb6" stop-opacity="1"></stop></linearGradient></defs><defs><linearGradient id="grad1_1" x1="0%" y1="0%" x2="100%" y2="100%"><stop offset="30%" stop-color="#0fadb6" stop-opacity="1"></stop><stop offset="70%" stop-color="#ffffff" stop-opacity="1"></stop></linearGradient></defs><defs><linearGradient id="grad2_0" x1="0%" y1="0%" x2="100%" y2="100%"><stop offset="30%" stop-color="#0fadb6" stop-opacity="1"></stop><stop offset="70%" stop-color="#0fadb6" stop-opacity="1"></stop></linearGradient></defs><defs><linearGradient id="grad2_1" x1="0%" y1="0%" x2="100%" y2="100%"><stop offset="30%" stop-color="#ffffff" stop-opacity="1"></stop><stop offset="70%" stop-color="#0fadb6" stop-opacity="1"></stop></linearGradient></defs><g transform="translate(540, 0)"><path d="M0 486C-51.2 475.8 -102.4 465.6 -143.7 442.2C-185 418.9 -216.3 382.5 -259.8 357.6C-303.3 332.7 -358.8 319.3 -393.2 285.7C-427.6 252 -440.8 198.1 -452.7 147.1C-464.6 96.1 -475.3 48.1 -486 0L0 0Z" fill="#a0d6da"></path><path d="M0 243C-25.6 237.9 -51.2 232.8 -71.8 221.1C-92.5 209.5 -108.2 191.2 -129.9 178.8C-151.6 166.3 -179.4 159.7 -196.6 142.8C-213.8 126 -220.4 99 -226.4 73.5C-232.3 48.1 -237.7 24 -243 0L0 0Z" fill="#0fadb6"></path></g><g transform="translate(0, 960)"><path d="M0 -486C47.1 -464.9 94.3 -443.8 137.8 -424.2C181.4 -404.5 221.3 -386.3 265.7 -365.7C310.1 -345.1 358.9 -322.1 393.2 -285.7C427.5 -249.3 447.3 -199.4 460.3 -149.6C473.4 -99.7 479.7 -49.9 486 0L0 0Z" fill="#a0d6da"></path><path d="M0 -243C23.6 -232.5 47.1 -221.9 68.9 -212.1C90.7 -202.3 110.6 -193.1 132.8 -182.8C155 -172.5 179.4 -161 196.6 -142.8C213.7 -124.6 223.6 -99.7 230.2 -74.8C236.7 -49.9 239.8 -24.9 243 0L0 0Z" fill="#0fadb6"></path></g></svg>